<svg xmlns="http://www.w3.org/2000/svg" xmlns:xlink="http://www.w3.org/1999/xlink" viewBox="0 0 840 726.85"><style><![CDATA[.B{opacity:.5}.C{opacity:.05}.D{opacity:.2}.E{fill:#47e6b1}]]></style><defs><linearGradient id="A" x1="432" y1="245.78" x2="432" y2="18.85" gradientUnits="userSpaceOnUse"><stop offset="0" stop-color="gray" stop-opacity=".25"/><stop offset=".54" stop-color="gray" stop-opacity=".12"/><stop offset="1" stop-color="gray" stop-opacity=".1"/></linearGradient><linearGradient id="B" x1="564.493" y1="718.316" x2="623.831" y2="542.157" xlink:href="#A"/><linearGradient id="C" x1="577.665" y1="324.357" x2="637.003" y2="148.199" xlink:href="#A"/><linearGradient id="D" y1="258.09" y2="103.27" xlink:href="#A"/><path id="E" d="M432 255.54c158.18 0 286.42-33.5 286.42-74.85H145.58c0 41.34 128.24 74.85 286.42 74.85z"/><path id="F" d="M133.9 57.8a3.68 3.68 0 0 1-2.05-4.44 1.86 1.86 0 0 0 .08-.41h0a1.84 1.84 0 0 0-3.31-1.22h0a1.82 1.82 0 0 0-.2.36 3.67 3.67 0 0 1-4.44 2.05 2 2 0 0 0-.41-.08h0a1.84 1.84 0 0 0-1.22 3.31h0a1.62 1.62 0 0 0 .36.21 3.68 3.68 0 0 1 2.05 4.44 1.89 1.89 0 0 0-.08.4h0a1.84 1.84 0 0 0 3.31 1.23h0a1.65 1.65 0 0 0 .2-.37 3.67 3.67 0 0 1 4.44-2 2 2 0 0 0 .41.08h0a1.84 1.84 0 0 0 1.22-3.31h0a1.62 1.62 0 0 0-.36-.25z"/></defs><ellipse cx="432" cy="132.31" rx="146.46" ry="113.46" fill="url(#A)" opacity=".8"/><ellipse cx="432" cy="132.31" rx="143.21" ry="110.94" fill="#f5cb5c"/><path d="M311.94 144.64c0-61.27 64.1-110.94 143.2-110.94a175.54 175.54 0 0 1 71.36 14.73c-25.17-17-58.1-27.33-94.14-27.33-79.1 0-143.2 49.67-143.2 110.94 0 41.14 28.9 77.05 71.86 96.2-30.07-20.34-49.07-50.25-49.07-83.6z" fill="#fff" opacity=".1"/><path fill="#f5cb5c" d="M432 176.9l317.52 549.95H114.48L432 176.9z" class="D"/><path d="M649.67 652.8L662 616.2c8.705-26.16-.713-54.938-23.2-70.9l.1-.06a61.48 61.48 0 0 0-15.79-8h0l-.17-.06-.2-.06a61.55 61.55 0 0 0-16.9-3.18 59.28 59.28 0 0 0-6.11 0 62.32 62.32 0 0 0-10.49 1.45c-1 .22-2 .47-2.9.74l-2.88.87a62.14 62.14 0 0 0-5.6 2.15c-.92.4-1.83.82-2.72 1.27a61.47 61.47 0 0 0-7.75 4.56c-.83.57-1.64 1.16-2.44 1.76a62 62 0 0 0-21.24 29.6L524.33 634a61.86 61.86 0 0 0-2.68 28.12c.2 1.45.45 2.9.74 4.32s.65 2.84 1 4.24a68.57 68.57 0 0 0 .86 2.78c.46 1.37 1 2.74 1.5 4.08a69.27 69.27 0 0 0 1.17 2.66c.8 1.75 1.7 3.46 2.68 5.13s2 3.3 3.16 4.88c.84 1.18 1.73 2.34 2.65 3.46 1.24 1.5 2.54 3 3.92 4.33a61.81 61.81 0 0 0 21 13.89h0l.34.14a21.66 21.66 0 0 1 1.4-2.17c3-4.1 8.22-7 13.2-5.92.36.08.72.2 1.08.3 2.52.9 5 2.48 7.43 3.26a6.66 6.66 0 0 0 5.61-.07c4.86-2.6 3.06-10.76 7.23-14.34a6.5 6.5 0 0 1 .61-.46 1.88 1.88 0 0 1-.16-.23c3.22-2 7.68-.67 11.4.62 4 1.4 9.22 2.36 12-.9 1.88-2.24 1.74-5.65 3.53-8 2.08-2.7 6-3 9.4-2.52l.17.05c6.5 2.68 13.6-1.77 13.1-8.78-.6-9.35 2.35-18.16 3.02-20.07z" transform="translate(-180 -86.57)" fill="url(#B)" opacity=".3"/><path d="M383.2 620.2c2.92-4 7.93-6.8 12.73-5.7s9.35 5.66 13.62 3.37c5.84-3.12 1.7-14.6 11.18-15.44a12.44 12.44 0 0 1 5.77 1c4 1.63 10.26 3.47 13.34-.2 1.8-2.16 1.68-5.45 3.4-7.7 2-2.6 5.8-2.93 9.06-2.43l.16.05c6.27 2.6 13.13-1.7 12.64-8.47-.63-9 2.23-17.48 2.85-19.32l11.88-35.3c10.52-31.512-6.394-65.603-37.85-76.3h0c-31.51-10.506-65.587 6.4-76.27 37.86L347 547.16c-10.105 30.317 5.158 63.26 34.82 75.15a21.47 21.47 0 0 1 1.39-2.1z" fill="#fff"/><circle cx="405.35" cy="486.08" r="6.51" class="D"/><circle cx="442.37" cy="498.53" r="6.51" class="D"/><ellipse cx="595.55" cy="603.56" rx="9.76" ry="6.51" transform="matrix(.318959 -.947768 .947768 .318959 -346.41 888.98)" fill="#e0e0e0"/><g fill="#fff"><circle cx="552.53" cy="487.52" r="9.76"/><circle cx="583.45" cy="472.17" r="4.88"/></g><g class="B"><path d="M662.67 259.8L675 223.2c8.705-26.16-.713-54.938-23.2-70.9l.1-.06a61.48 61.48 0 0 0-15.79-8h0l-.17-.06-.2-.06a61.55 61.55 0 0 0-16.9-3.18 59.28 59.28 0 0 0-6.11 0 62.32 62.32 0 0 0-10.49 1.45c-1 .22-2 .47-2.9.74l-2.88.87a62.14 62.14 0 0 0-5.6 2.15c-.92.4-1.83.82-2.72 1.27a61.47 61.47 0 0 0-7.75 4.56c-.83.57-1.64 1.16-2.44 1.76a62 62 0 0 0-21.24 29.6L537.33 241a61.86 61.86 0 0 0-2.68 28.12c.2 1.45.45 2.9.74 4.32s.65 2.84 1 4.24a68.57 68.57 0 0 0 .86 2.78c.46 1.37 1 2.74 1.5 4.08a69.27 69.27 0 0 0 1.17 2.66c.8 1.75 1.7 3.46 2.68 5.13s2 3.3 3.16 4.88c.84 1.18 1.73 2.34 2.65 3.46a61.73 61.73 0 0 0 3.92 4.33 61.81 61.81 0 0 0 21 13.89h0l.34.14a21.66 21.66 0 0 1 1.4-2.17c3-4.1 8.22-7 13.2-5.92.36.08.72.2 1.08.3 2.52.9 5 2.48 7.43 3.26a6.66 6.66 0 0 0 5.61-.07c4.86-2.6 3.06-10.76 7.23-14.34a6.5 6.5 0 0 1 .61-.46 1.88 1.88 0 0 1-.16-.23c3.22-2 7.68-.67 11.4.62 4 1.4 9.22 2.36 12-.9 1.88-2.24 1.74-5.65 3.53-8 2.08-2.7 6-3 9.4-2.52h.17c6.5 2.68 13.6-1.77 13.1-8.78-.6-9.3 2.35-18.1 3.02-20.02z" transform="translate(-180 -86.57)" fill="url(#C)" opacity=".3"/><path d="M396.2 227.2c2.92-4 7.93-6.8 12.73-5.7s9.35 5.66 13.62 3.37c5.84-3.12 1.7-14.6 11.18-15.44a12.44 12.44 0 0 1 5.77 1c4 1.63 10.26 3.47 13.34-.2 1.8-2.16 1.68-5.45 3.4-7.7 2-2.6 5.8-2.93 9.06-2.43l.16.05c6.27 2.6 13.13-1.7 12.64-8.47-.63-9 2.23-17.48 2.85-19.32l11.88-35.3c10.52-31.512-6.394-65.603-37.85-76.3h0c-31.51-10.506-65.587 6.4-76.27 37.86L360 154.16c-10.105 30.317 5.158 63.26 34.82 75.15a21.47 21.47 0 0 1 1.39-2.1z" fill="#fff"/><circle cx="418.35" cy="93.08" r="6.51" class="D"/><circle cx="455.37" cy="105.53" r="6.51" class="D"/></g><path d="M569.52 99.43a87.52 87.52 0 0 1 2.79 22c0 61.27-64.1 110.94-143.2 110.94-64.73-.04-119.42-33.3-137.1-78.94 13.14 50.77 71 89 140.4 89 79.1 0 143.2-49.67 143.2-110.94a88.16 88.16 0 0 0-6.1-32.06z" opacity=".1"/><ellipse cx="432" cy="180.68" rx="296.18" ry="77.41" fill="url(#D)" opacity=".8"/><g fill="#fff"><path d="M432 105.83c-158.18 0-286.42 33.5-286.42 74.86h572.84c0-41.35-128.24-74.86-286.42-74.86z"/><use xlink:href="#E"/></g><use xlink:href="#E" class="C"/><rect x="295.3" y="161.15" width="273.4" height="39.06" rx="17.22" class="C"/><g fill="#4d8af0"><use xlink:href="#F" class="B"/><path d="M642.9 363.8a3.68 3.68 0 0 1-2-4.44 1.86 1.86 0 0 0 .08-.41h0a1.84 1.84 0 0 0-3.31-1.22h0a1.82 1.82 0 0 0-.2.36 3.67 3.67 0 0 1-4.44 2.05 2 2 0 0 0-.41-.08h0a1.84 1.84 0 0 0-1.22 3.31h0a1.62 1.62 0 0 0 .36.21 3.68 3.68 0 0 1 2 4.44 1.89 1.89 0 0 0-.08.4h0a1.84 1.84 0 0 0 3.31 1.23h0a1.65 1.65 0 0 0 .2-.37 3.67 3.67 0 0 1 4.44-2 2 2 0 0 0 .41.08h0a1.84 1.84 0 0 0 1.22-3.31h0a1.62 1.62 0 0 0-.36-.25z" class="B"/><use xlink:href="#F" x="-53" y="448" class="B"/><path d="M25.9 174.8a3.68 3.68 0 0 1-2-4.44 1.86 1.86 0 0 0 .08-.41h0a1.84 1.84 0 0 0-3.31-1.22h0a1.82 1.82 0 0 0-.2.36 3.67 3.67 0 0 1-4.44 2.05 2 2 0 0 0-.41-.08h0a1.84 1.84 0 0 0-1.22 3.31h0a1.62 1.62 0 0 0 .36.21 3.68 3.68 0 0 1 2.05 4.44 1.89 1.89 0 0 0-.08.4h0a1.84 1.84 0 0 0 3.31 1.23h0a1.65 1.65 0 0 0 .2-.37 3.67 3.67 0 0 1 4.44-2 2 2 0 0 0 .41.08h0a1.84 1.84 0 0 0 1.22-3.31h0a1.62 1.62 0 0 0-.41-.25zm607-168a3.68 3.68 0 0 1-2-4.44 1.86 1.86 0 0 0 .08-.41h0a1.84 1.84 0 0 0-3.31-1.22h0a1.82 1.82 0 0 0-.2.36 3.67 3.67 0 0 1-4.44 2 2 2 0 0 0-.41-.08h0a1.84 1.84 0 0 0-1.27 3.41h0a1.62 1.62 0 0 0 .36.21 3.68 3.68 0 0 1 2 4.44 1.89 1.89 0 0 0-.08.4h0a1.84 1.84 0 0 0 3.38 1.18h0a1.65 1.65 0 0 0 .2-.37 3.67 3.67 0 0 1 4.44-2 2 2 0 0 0 .41.08h0a1.84 1.84 0 0 0 1.22-3.31h0a1.62 1.62 0 0 0-.38-.25z" class="B"/></g><g class="B E"><path d="M110 257.85h3v17h-3z"/><path d="M120 264.85v3h-17v-3z"/></g><g class="B E"><path d="M830 177.85h3v17h-3z"/><path d="M840 184.85v3h-17v-3z"/></g><g class="B E"><path d="M730 456.85h3v17h-3z"/><path d="M740 463.85v3h-17v-3z"/></g><g fill="#f55f44"><circle cx="723" cy="81.85" r="6" class="B"/><circle cx="6" cy="12.85" r="6" class="B"/><circle cx="186" cy="357.85" r="6" class="B"/></g><ellipse cx="234" cy="154.43" rx="34" ry="7" class="C"/><ellipse cx="234" cy="207.43" rx="34" ry="7" class="C"/><ellipse cx="621" cy="154.43" rx="34" ry="7" class="C"/><ellipse cx="621" cy="207.43" rx="34" ry="7" class="C"/><ellipse cx="432" cy="124.43" rx="34" ry="7" class="C"/><ellipse cx="457" cy="51.43" rx="34" ry="7" class="C"/><ellipse cx="392" cy="81.43" rx="34" ry="7" class="C"/><ellipse cx="517" cy="94.43" rx="34" ry="7" class="C"/><ellipse cx="432" cy="228.43" rx="34" ry="7" class="C"/></svg>