<svg width="250" height="250" viewBox="0 0 250 250" fill="none" xmlns="http://www.w3.org/2000/svg">
<rect width="250" height="250" fill="#F5CB5C"/>
<path fill-rule="evenodd" clip-rule="evenodd" d="M88.884 28.3096C86.9274 30.2662 86.9274 33.4383 88.884 35.3948C90.8405 37.3514 94.0127 37.3514 95.9692 35.3948L131.364 0H250V117.695L214.386 153.309C212.429 155.266 212.429 158.438 214.386 160.395C216.343 162.351 219.515 162.351 221.471 160.395L250 131.866V250H131.364L159.736 221.628C161.693 219.671 161.693 216.499 159.736 214.543C157.78 212.586 154.608 212.586 152.651 214.543L117.194 250H0V131.866L35.2382 96.6278C37.1948 94.6713 37.1948 91.4991 35.2382 89.5426C33.2817 87.5861 30.1095 87.5861 28.153 89.5426L0 117.696V0H117.194L88.884 28.3096Z" fill="#252525"/>
</svg>
