<svg xmlns="http://www.w3.org/2000/svg" xmlns:xlink="http://www.w3.org/1999/xlink" width="512" height="512" fill="none"><rect width="512" height="512" rx="64" fill="#252525"/><mask id="A" fill="#fff"><use xlink:href="#C" fill-rule="evenodd"/></mask><use xlink:href="#C" fill-rule="evenodd" fill="url(#B)"/><path d="M273.778 96l31.696 4.402L319.482-.46l-69.185 74.72L273.778 96zM96 288l-23.48-21.74L22.76 320H96v-32zm160-64l-31.696-4.402L219.248 256H256v-32zm160 0l23.48 21.74L489.24 192H416v32zM238.222 416l-31.696-4.402-14.008 100.863 69.185-74.72-23.48-21.74zM256 288l31.696 4.402L292.752 256H256v32zM32 64c0-17.673 14.327-32 32-32v-64c-53.02 0-96 42.98-96 96h64zm0 384V64h-64v384h64zm32 32c-17.673 0-32-14.327-32-32h-64c0 53.02 42.98 96 96 96v-64zm384 0H64v64h384v-64zm32-32c0 17.673-14.327 32-32 32v64c53.02 0 96-42.98 96-96h-64zm0-384v384h64V64h-64zm-32-32c17.673 0 32 14.327 32 32h64c0-53.02-42.98-96-96-96v64zM64 32h384v-64H64v64zm186.297 42.26l-177.777 192 46.96 43.482 177.778-192-46.96-43.482zm37.4 154.143l17.778-128-63.392-8.804-17.778 128 63.392 8.804zM416 192H256v64h160v-64zM261.703 437.74l177.777-192-46.96-43.482-177.778 192 46.96 43.482zm-37.4-154.143l-17.778 128 63.392 8.804 17.778-128-63.392-8.804zM96 320h160v-64H96v64z" fill="#f5cb5c" mask="url(#A)"/><defs><linearGradient id="B" x1="38" y1="39" x2="551" y2="545" gradientUnits="userSpaceOnUse"><stop stop-color="#f5cb5c"/><stop offset="1" stop-color="#b210ff" stop-opacity="0"/></linearGradient><path id="C" d="M64 0C28.654 0 0 28.654 0 64v384c0 35.346 28.654 64 64 64h384c35.346 0 64-28.654 64-64V64c0-35.346-28.654-64-64-64H64zm32 288L273.778 96 256 224h160L238.222 416 256 288H96z"/></defs></svg>