<svg xmlns="http://www.w3.org/2000/svg" xmlns:xlink="http://www.w3.org/1999/xlink" width="512" height="512" fill="none"><rect x="15" y="15" width="482" height="482" rx="241" fill="#252525"/><mask id="A" fill="#fff"><use xlink:href="#C" fill-rule="evenodd"/></mask><use xlink:href="#C" fill-rule="evenodd" fill="url(#B)"/><path d="M273.778 96l31.696 4.402L319.482-.46l-69.185 74.72L273.778 96zM96 288l-23.48-21.74L22.76 320H96v-32zm160-64l-31.696-4.402L219.248 256H256v-32zm160 0l23.48 21.74L489.24 192H416v32zM238.222 416l-31.696-4.402-14.008 100.863 69.185-74.72-23.48-21.74zM256 288l31.696 4.402L292.752 256H256v32zM32 256C32 132.288 132.288 32 256 32v-64C96.942-32-32 96.942-32 256h64zm224 224C132.288 480 32 379.712 32 256h-64c0 159.058 128.942 288 288 288v-64zm224-224c0 123.712-100.288 224-224 224v64c159.058 0 288-128.942 288-288h-64zM256 32c123.712 0 224 100.288 224 224h64C544 96.942 415.058-32 256-32v64zm-5.703 42.26l-177.777 192 46.96 43.482 177.778-192-46.96-43.482zm37.4 154.143l17.778-128-63.392-8.804-17.778 128 63.392 8.804zM416 192H256v64h160v-64zM261.703 437.74l177.777-192-46.96-43.482-177.778 192 46.96 43.482zm-37.4-154.143l-17.778 128 63.392 8.804 17.778-128-63.392-8.804zM96 320h160v-64H96v64z" fill="#f5cb5c" mask="url(#A)"/><defs><linearGradient id="B" x1="38" y1="39" x2="551" y2="545" gradientUnits="userSpaceOnUse"><stop stop-color="#f5cb5c"/><stop offset="1" stop-color="#b210ff" stop-opacity="0"/></linearGradient><path id="C" d="M256 0C114.615 0 0 114.615 0 256s114.615 256 256 256 256-114.615 256-256S397.385 0 256 0zM96 288L273.778 96 256 224h160L238.222 416 256 288H96z"/></defs></svg>